<svg width="36" height="44" viewBox="0 0 36 44" fill="none" xmlns="http://www.w3.org/2000/svg">
<path d="M0.5 5.13333C0.5 2.29973 2.78674 0 5.60434 0H18.7298C21.5474 0 23.8341 2.29973 23.8341 5.13333V14.7312C21.0383 14.4737 18.2243 14.9586 15.6732 16.1374C13.122 17.3162 10.9232 19.1477 9.29643 21.4489C7.66963 23.75 6.67181 26.4403 6.40267 29.2507C6.13354 32.0612 6.60252 34.8935 7.76275 37.4645L6.67479 41.0667H5.60434C4.25058 41.0667 2.95228 40.5258 1.99503 39.5632C1.03778 38.6005 0.5 37.2948 0.5 35.9333V5.13333ZM22.3757 44C25.2553 43.9997 28.0549 43.0472 30.343 41.289C32.6312 39.5309 34.281 37.0649 35.0381 34.2709C35.7953 31.4768 35.6178 28.51 34.533 25.8274C33.4483 23.1448 31.5164 20.8954 29.0352 19.4259C26.554 17.9563 23.661 17.3481 20.8022 17.6951C17.9434 18.042 15.2773 19.3247 13.2149 21.3457C11.1524 23.3666 9.80805 26.0135 9.3889 28.8786C8.96975 31.7437 9.49909 34.6678 10.8954 37.2005L9.30572 42.4483C9.24417 42.656 9.2396 42.8766 9.29249 43.0868C9.34539 43.2969 9.45377 43.4888 9.60619 43.6421C9.75861 43.7954 9.94939 43.9044 10.1584 43.9576C10.3673 44.0108 10.5867 44.0062 10.7933 43.9443L16.0143 42.3485C17.9613 43.4325 20.1503 44.0008 22.3757 44ZM15.0838 27.8667C15.0838 27.4777 15.2375 27.1046 15.511 26.8296C15.7845 26.5545 16.1554 26.4 16.5422 26.4H28.2093C28.5961 26.4 28.967 26.5545 29.2405 26.8296C29.514 27.1046 29.6677 27.4777 29.6677 27.8667C29.6677 28.2557 29.514 28.6287 29.2405 28.9038C28.967 29.1788 28.5961 29.3333 28.2093 29.3333H16.5422C16.1554 29.3333 15.7845 29.1788 15.511 28.9038C15.2375 28.6287 15.0838 28.2557 15.0838 27.8667ZM16.5422 35.2C16.1554 35.2 15.7845 35.0455 15.511 34.7704C15.2375 34.4954 15.0838 34.1223 15.0838 33.7333C15.0838 33.3443 15.2375 32.9713 15.511 32.6962C15.7845 32.4212 16.1554 32.2667 16.5422 32.2667H22.3757C22.7625 32.2667 23.1335 32.4212 23.407 32.6962C23.6805 32.9713 23.8341 33.3443 23.8341 33.7333C23.8341 34.1223 23.6805 34.4954 23.407 34.7704C23.1335 35.0455 22.7625 35.2 22.3757 35.2H16.5422Z" fill="currentColor"/>
</svg>
