<svg width="34" height="33" viewBox="0 0 34 33" fill="none" xmlns="http://www.w3.org/2000/svg">
<path d="M31.8173 11.3174L22.2911 2.12426L23.1345 1.31029C23.5394 0.919582 24.0303 0.726145 24.6071 0.729975C25.1853 0.733806 25.6768 0.931074 26.0817 1.32178L32.6707 7.71865C33.0768 8.10936 33.2799 8.5754 33.2799 9.11677C33.2799 9.65814 33.0775 10.1242 32.6726 10.5149L31.8173 11.3174ZM10.6771 31.7778C10.2973 32.1442 9.82764 32.3396 9.26798 32.3638C8.70832 32.3881 8.23796 32.2176 7.85691 31.8525L1.15087 25.4173C0.74601 25.0266 0.543579 24.5542 0.543579 24C0.543579 23.4472 0.74601 22.9754 1.15087 22.5847L2.13525 21.6347L11.6614 30.8278L10.6771 31.7778ZM17.262 31.6533C16.9405 31.9623 16.5661 32.1168 16.1387 32.1168C15.7114 32.1168 15.3376 31.9623 15.0174 31.6533L1.27987 18.3961C0.958365 18.0858 0.797611 17.7244 0.797611 17.312C0.797611 16.8996 0.957703 16.5389 1.27789 16.2299L4.22109 13.3782C4.54259 13.0692 4.91901 12.9147 5.35034 12.9147C5.78166 12.9147 6.15742 13.0692 6.4776 13.3782L10.175 16.9845L17.4942 9.92116L13.7592 6.35117C13.4377 6.04218 13.2769 5.68148 13.2769 5.26907C13.2769 4.85666 13.4377 4.49532 13.7592 4.18505L16.7004 1.2988C17.0219 0.988532 17.4043 0.833397 17.8475 0.833397C18.2907 0.833397 18.6731 0.987892 18.9946 1.29688L32.7302 14.5522C33.0517 14.8625 33.2125 15.2315 33.2125 15.6592C33.2125 16.0869 33.0517 16.4559 32.7302 16.7662L29.7394 19.6065C29.4179 19.9155 29.0434 20.07 28.6161 20.07C28.1887 20.07 27.8149 19.9155 27.4948 19.6065L23.7954 16.0001L16.4761 23.0654L20.2132 26.6335C20.5334 26.9424 20.6935 27.3051 20.6935 27.7213C20.6935 28.1375 20.5334 28.5008 20.2132 28.8111L17.262 31.6533Z" fill="currentColor"/>
</svg>
