<svg width="35" height="34" viewBox="0 0 35 34" fill="none" xmlns="http://www.w3.org/2000/svg">
<path d="M11.1653 0.313983C0.59641 3.16811 -3.46625 12.9605 6.0194 16.2529H5.94241C5.98706 16.259 6.03199 16.266 6.07642 16.2726C6.70818 16.489 7.40041 16.6757 8.15289 16.8309C11.6894 18.2199 14.2474 21.5858 14.4548 24.875C12.0983 26.4989 10.2733 29.2937 10.2733 29.2937L12.1211 32.0138L9.22284 33.664H14.9864C12.144 30.821 14.1595 27.6238 17.5264 27.6238C20.9394 27.6238 22.7257 31.0067 20.0686 33.664H25.7728L22.9339 32.0138L24.7819 29.2937C24.7819 29.2937 22.9274 26.4531 20.5434 24.8355C20.7686 21.5588 23.3207 18.2143 26.843 16.8308C27.5958 16.6756 28.2876 16.4891 28.9193 16.2727C28.9638 16.266 29.0088 16.259 29.0535 16.253H28.9744C38.4614 12.961 34.3999 3.16825 23.8305 0.313843C20.9673 3.08205 24.2904 7.46343 26.898 4.31301C29.4925 9.17019 27.5029 13.284 21.8158 10.1775C20.9805 11.8996 19.4102 13.0866 17.5487 13.0866C15.6711 13.0866 14.0916 11.8795 13.2617 10.1335C7.512 13.3243 5.49135 9.19326 8.09819 4.31301C10.7061 7.46336 14.029 3.08198 11.1656 0.313913L11.1653 0.313983ZM17.549 2.83961C15.6232 2.83961 13.9398 4.77714 13.9398 7.31219C13.9398 9.84737 15.6232 11.7415 17.549 11.7415C19.4747 11.7415 21.1579 9.8473 21.1579 7.31226C21.1579 4.77693 19.4746 2.83968 17.5489 2.83968L17.549 2.83961Z" fill="currentColor"/>
</svg>
